<svg xmlns="http://www.w3.org/2000/svg" viewBox="0 0 300 116"><defs><style>.cls-1{fill:none;}</style></defs><title>logo</title><g id="Layer_2" data-name="Layer 2"><g id="Layer_1-2" data-name="Layer 1"><path d="M69.75,76.1c0-.54,0-1.07,0-1.61a6.15,6.15,0,0,1-3.14,2.71A11.14,11.14,0,0,1,62.4,78a10.38,10.38,0,0,1-4.26-.83A9.53,9.53,0,0,1,55,75a9.28,9.28,0,0,1-2-3.29,12,12,0,0,1-.67-4.05V51h7.13V66.18A6.09,6.09,0,0,0,60.66,70a4.3,4.3,0,0,0,3.68,1.53A4.65,4.65,0,0,0,68,70a5.44,5.44,0,0,0,1.29-3.75V51h7.14V72.56c0,1,0,2,.08,2.82s.11,1.49.18,2H69.91A7.92,7.92,0,0,1,69.75,76.1Z"/><path d="M91.6,77.33,80.82,51h7.83l6.54,17.7L101.46,51H109L98.73,77.33Z"/><path d="M134.65,73a11.45,11.45,0,0,1-2.55,2.65,12.36,12.36,0,0,1-3.51,1.8,14.15,14.15,0,0,1-4.43.67,14.65,14.65,0,0,1-5.2-.94,12.75,12.75,0,0,1-4.34-2.76,13.28,13.28,0,0,1-3-4.45,15.37,15.37,0,0,1-1.1-6,14.9,14.9,0,0,1,1.07-5.74,13.66,13.66,0,0,1,2.87-4.37,13,13,0,0,1,4.16-2.78,12.32,12.32,0,0,1,4.88-1q6.17,0,9.6,3.65t3.43,10c0,.5,0,1-.05,1.42s-.05.71-.05.78H117.57a5.63,5.63,0,0,0,.61,2.38,6.47,6.47,0,0,0,3.52,3.17,7,7,0,0,0,2.52.45,6.2,6.2,0,0,0,3.94-1.12,6.41,6.41,0,0,0,2.07-2.9l6,1.77A10.85,10.85,0,0,1,134.65,73Zm-5.53-13.79a4.47,4.47,0,0,0-1.07-1.66,5.67,5.67,0,0,0-1.82-1.18,6.83,6.83,0,0,0-2.6-.45,6,6,0,0,0-2.47.48,6.08,6.08,0,0,0-1.82,1.23,5.61,5.61,0,0,0-1.16,1.66,5.34,5.34,0,0,0-.45,1.83h11.8A6.41,6.41,0,0,0,129.12,59.23Z"/><path d="M147.35,71.43a4.63,4.63,0,0,0,3.54,1.24,3.83,3.83,0,0,0,2.63-.78,2.41,2.41,0,0,0,.85-1.85,2.2,2.2,0,0,0-.64-1.58,4.22,4.22,0,0,0-2.2-1l-3.49-.8a9.88,9.88,0,0,1-5.63-3,7.45,7.45,0,0,1-1.77-4.91,7.57,7.57,0,0,1,.76-3.35,8.28,8.28,0,0,1,2.06-2.74,10.31,10.31,0,0,1,3.11-1.85,10.91,10.91,0,0,1,3.94-.7,12.63,12.63,0,0,1,4.72.78,9.52,9.52,0,0,1,3.14,2,8.31,8.31,0,0,1,1.79,2.49,7.62,7.62,0,0,1,.7,2.39l-6,1.34a6.55,6.55,0,0,0-.35-1.21,3.36,3.36,0,0,0-.78-1.15,3.93,3.93,0,0,0-1.31-.86,5.06,5.06,0,0,0-1.9-.32,3.85,3.85,0,0,0-2.39.75,2.28,2.28,0,0,0-1,1.88,2,2,0,0,0,.67,1.55,3.61,3.61,0,0,0,1.74.81l3.75.8a10.44,10.44,0,0,1,5.88,3,7.42,7.42,0,0,1,2,5.09,8.49,8.49,0,0,1-.61,3.16,7.91,7.91,0,0,1-1.91,2.79,9.62,9.62,0,0,1-3.21,2,12.43,12.43,0,0,1-4.51.75,13.06,13.06,0,0,1-5-.86,10.85,10.85,0,0,1-3.33-2.09,8.29,8.29,0,0,1-1.9-2.66A8.44,8.44,0,0,1,140,70l6.11-1.34A4.36,4.36,0,0,0,147.35,71.43Z"/><path d="M167.36,39.15a4.25,4.25,0,0,1,3.12-1.29,4.19,4.19,0,0,1,3.13,1.29,4.34,4.34,0,0,1,1.26,3.16,4.4,4.4,0,0,1-8.79,0A4.32,4.32,0,0,1,167.36,39.15ZM166.94,51h7.13V77.33h-7.13Z"/><path d="M181.69,38.51h7.13V77.33h-7.13Z"/><path d="M204,77.33,193.18,51H201l6.54,17.7L213.82,51h7.51L211.09,77.33Z"/><path d="M224.59,67a7.63,7.63,0,0,1,1.69-2.39,8.3,8.3,0,0,1,2.49-1.6,13.5,13.5,0,0,1,3.09-.86l6.49-1a2.36,2.36,0,0,0,1.55-.67,1.79,1.79,0,0,0,.43-1.21,3.16,3.16,0,0,0-1.1-2.41,4.78,4.78,0,0,0-3.35-1,4.68,4.68,0,0,0-5,4.29l-6.33-1.34a8.69,8.69,0,0,1,1-3.11,9.56,9.56,0,0,1,2.2-2.79,11.13,11.13,0,0,1,3.43-2,13.16,13.16,0,0,1,4.72-.78,14.94,14.94,0,0,1,5.31.84,9.88,9.88,0,0,1,3.56,2.19,8.26,8.26,0,0,1,2,3.19,11.88,11.88,0,0,1,.61,3.81v13c0,.72,0,1.48.11,2.28s.14,1.44.21,1.9h-6.54a13.64,13.64,0,0,1-.18-1.47c-.06-.63-.09-1.19-.09-1.69A8.8,8.8,0,0,1,233,78.08a10.06,10.06,0,0,1-3.78-.67,8.81,8.81,0,0,1-2.87-1.77A7.45,7.45,0,0,1,224,70.15,7.58,7.58,0,0,1,224.59,67Zm12.12,5.47a4.67,4.67,0,0,0,1.85-1,5.07,5.07,0,0,0,1.29-1.88,7.61,7.61,0,0,0,.48-2.92V65.48l-6,.91a4.71,4.71,0,0,0-2.33,1,2.82,2.82,0,0,0-.94,2.33,3,3,0,0,0,.86,2.12,3.33,3.33,0,0,0,2.57.93A7.84,7.84,0,0,0,236.71,72.48Z"/><rect class="cls-1" width="300" height="116"/></g></g></svg>